<svg width="16" height="16" viewBox="0 0 16 16" fill="none" xmlns="http://www.w3.org/2000/svg">
<g clip-path="url(#clip0_28432_2001)">
<path d="M15.9914 8.14946C15.9914 7.49394 15.9369 7.01559 15.8191 6.51953H8.15836V9.47819H12.655C12.5644 10.2135 12.0749 11.3208 10.9869 12.0648L10.9717 12.1639L13.3939 13.9973L13.5617 14.0137C15.1029 12.6229 15.9914 10.5766 15.9914 8.14946Z" fill="#4285F4"/>
<path d="M8.15835 15.9455C10.3614 15.9455 12.2108 15.2368 13.5617 14.0144L10.9869 12.0655C10.2979 12.535 9.37317 12.8628 8.15835 12.8628C6.00067 12.8628 4.16936 11.4721 3.51654 9.5498L3.42086 9.55774L0.902231 11.4623L0.869293 11.5518C2.21104 14.1561 4.9671 15.9455 8.15835 15.9455Z" fill="#34A853"/>
<path d="M3.51659 9.54985C3.34434 9.05379 3.24465 8.52225 3.24465 7.97306C3.24465 7.42381 3.34434 6.89232 3.50752 6.39626L3.50296 6.29061L0.952773 4.35547L0.869336 4.39425C0.316336 5.47498 -0.000976562 6.6886 -0.000976562 7.97306C-0.000976562 9.25752 0.316336 10.4711 0.869336 11.5518L3.51659 9.54985Z" fill="#FBBC05"/>
<path d="M8.15835 3.08269C9.69048 3.08269 10.724 3.72934 11.3133 4.26974L13.616 2.07285C12.2018 0.788397 10.3614 0 8.15835 0C4.9671 0 2.21104 1.78937 0.869293 4.39371L3.50748 6.39573C4.16936 4.47347 6.00067 3.08269 8.15835 3.08269Z" fill="#EB4335"/>
</g>
<defs>
<clipPath id="clip0_28432_2001">
<rect width="16" height="16" fill="white" transform="translate(-0.000976562)"/>
</clipPath>
</defs>
</svg>
