<svg width="17" height="16" viewBox="0 0 17 16" fill="none" xmlns="http://www.w3.org/2000/svg">
<path d="M11.5779 0C11.6151 0 11.6523 0 11.6917 0C11.783 1.12835 11.3523 1.97146 10.8289 2.582C10.3153 3.18834 9.61203 3.7764 8.47455 3.68717C8.39867 2.57498 8.83005 1.79441 9.35278 1.18526C9.83756 0.617573 10.7263 0.112414 11.5779 0Z" fill="#9CA3AF"/>
<path d="M15.0213 11.7446C15.0213 11.7558 15.0213 11.7657 15.0213 11.7762C14.7016 12.7444 14.2457 13.5741 13.6892 14.3442C13.1812 15.0432 12.5588 15.984 11.4473 15.984C10.4868 15.984 9.84887 15.3664 8.86455 15.3496C7.82332 15.3327 7.25071 15.866 6.29871 16.0001C6.1898 16.0001 6.0809 16.0001 5.97411 16.0001C5.27504 15.899 4.71086 15.3453 4.29985 14.8465C3.08789 13.3725 2.15134 11.4685 1.9771 9.03189C1.9771 8.79302 1.9771 8.55484 1.9771 8.31596C2.05087 6.57214 2.89819 5.15432 4.02443 4.46719C4.61882 4.10185 5.43593 3.7906 6.34578 3.92971C6.73571 3.99013 7.13408 4.12363 7.48327 4.25571C7.81418 4.38288 8.22801 4.60841 8.62005 4.59647C8.88563 4.58874 9.1498 4.45033 9.41749 4.35267C10.2016 4.06953 10.9702 3.74493 11.9833 3.89739C13.2009 4.08147 14.0651 4.62246 14.5991 5.45714C13.5691 6.11265 12.7548 7.10048 12.8939 8.78739C13.0175 10.3197 13.9084 11.2162 15.0213 11.7446Z" fill="#9CA3AF"/>
</svg>
