<svg width="20" height="20" viewBox="0 0 20 20" fill="none" xmlns="http://www.w3.org/2000/svg">
<path fill-rule="evenodd" clip-rule="evenodd" d="M4.24602 3.1682C3.85549 2.77767 3.22233 2.77767 2.8318 3.1682C2.44128 3.55872 2.44128 4.19188 2.8318 4.58241L8.58527 10.3359L3.16768 15.7535C2.77715 16.144 2.77715 16.7772 3.16768 17.1677C3.5582 17.5582 4.19137 17.5582 4.58189 17.1677L9.99948 11.7501L15.4174 17.168C15.8079 17.5585 16.441 17.5585 16.8316 17.168C17.2221 16.7774 17.2221 16.1443 16.8316 15.7538L11.4137 10.3359L17.1674 4.58212C17.558 4.1916 17.558 3.55843 17.1674 3.16791C16.7769 2.77738 16.1438 2.77739 15.7532 3.16791L9.99948 8.92166L4.24602 3.1682Z" fill="#9CA3AF"/>
</svg>
