<svg width="268" height="28" viewBox="0 0 268 28" fill="none" xmlns="http://www.w3.org/2000/svg">
<path d="M5.80859 3.50781C6.74609 3.50781 7.47266 2.76953 7.47266 1.87891C7.47266 1 6.74609 0.261719 5.80859 0.261719C4.87109 0.261719 4.14453 1 4.14453 1.87891C4.14453 2.76953 4.87109 3.50781 5.80859 3.50781ZM10.707 3.50781C11.6562 3.50781 12.3711 2.76953 12.3711 1.87891C12.3711 1 11.6562 0.261719 10.707 0.261719C9.76953 0.261719 9.04297 1 9.04297 1.87891C9.04297 2.76953 9.76953 3.50781 10.707 3.50781ZM8.25781 22.293C13.2852 22.293 16.4141 18.9297 16.4141 13.5508V13.5273C16.4141 8.16016 13.2734 4.79688 8.25781 4.79688C3.25391 4.79688 0.101562 8.14844 0.101562 13.5273V13.5508C0.101562 18.9297 3.23047 22.293 8.25781 22.293ZM8.25781 19.293C5.48047 19.293 3.71094 17.0898 3.71094 13.5508V13.5273C3.71094 9.98828 5.49219 7.79688 8.25781 7.79688C11.0352 7.79688 12.8047 10 12.8047 13.5273V13.5508C12.8047 17.0547 11.0703 19.293 8.25781 19.293ZM18.7188 22H31.7734V19.082H22.9727V19.0117L31.5391 7.38672V5.08984H18.918V8.00781H27.3203V8.07812L18.7188 19.6914V22ZM34.7227 22H38.2617V5.08984H34.7227V22ZM41.5742 22H45.1016V10.9258H45.1719L52.8359 22H55.9062V5.08984H52.3789V16.082H52.3086L44.668 5.08984H41.5742V22ZM65.2188 27.5664C66.9062 27.5664 68.1367 26.6875 68.1367 25.2578V25.2344C68.1367 23.8633 67.3047 23.0898 66.0039 22.9609L66.4492 22.2461C70.082 21.9414 72.2266 19.9609 72.2266 16.9844V16.9727C72.2266 14.3125 70.6328 12.8711 67.0938 12.168L65.3008 11.8047C63.3555 11.418 62.4883 10.7969 62.4883 9.73047V9.71875C62.4883 8.51172 63.5781 7.67969 65.3945 7.66797C67.1406 7.66797 68.3594 8.47656 68.5352 9.80078L68.5469 9.94141H71.8867L71.875 9.71875C71.7109 6.75391 69.3086 4.79688 65.3945 4.79688C61.6445 4.79688 58.9492 6.83594 58.9492 9.92969V9.94141C58.9492 12.4844 60.6367 14.0781 63.9766 14.7461L65.7578 15.0977C67.8555 15.5312 68.6875 16.1055 68.6875 17.2539V17.2656C68.6875 18.5547 67.457 19.4102 65.5 19.4102C63.5664 19.4102 62.1719 18.5898 61.9492 17.2773L61.9258 17.1484H58.5859L58.5977 17.3359C58.7734 20.2188 61 22 64.5156 22.2578L63.8008 23.3945V24.4141H64.2461C65.1133 24.4141 65.5117 24.6836 65.5117 25.1406V25.1641C65.5117 25.6094 65.0547 25.8086 64.4219 25.8086C63.9766 25.8086 63.5312 25.7383 63.25 25.6445V27.2852C63.625 27.4492 64.3984 27.5664 65.2188 27.5664ZM74.8945 22H86.0977V19.082H78.4336V14.8281H85.6641V12.0625H78.4336V8.00781H86.0977V5.08984H74.8945V22ZM89.1758 16.6211H96.7695V13.6328H89.1758V16.6211ZM108.754 12.0156V9.4375H100V22H103.422V12.0156H108.754ZM116.695 22.2578C120.27 22.2578 122.004 20.1367 122.402 18.2852L122.426 18.1562H119.285L119.262 18.2266C119.027 18.9297 118.172 19.7031 116.766 19.7031C115.02 19.7031 113.93 18.5312 113.883 16.5273H122.531V15.4727C122.531 11.6758 120.234 9.17969 116.555 9.17969C112.863 9.17969 110.508 11.7344 110.508 15.7305V15.7422C110.508 19.7617 112.84 22.2578 116.695 22.2578ZM116.613 11.7344C118.02 11.7344 119.039 12.6367 119.25 14.3711H113.93C114.152 12.6719 115.195 11.7344 116.613 11.7344ZM134.09 16.7266L138.016 22H139.305V25.3398H142.387V19.3633H140.137L137.055 15.2617L141.836 9.4375H137.945L134.09 14.3711H133.68V9.4375H130.258V22H133.68V16.7266H134.09ZM149.73 22.2578C153.527 22.2578 155.953 19.8203 155.953 15.7188V15.6953C155.953 11.6289 153.492 9.17969 149.73 9.17969C145.969 9.17969 143.508 11.6523 143.508 15.6953V15.7188C143.508 19.8086 145.922 22.2578 149.73 22.2578ZM149.742 19.5742C148.055 19.5742 146.988 18.1797 146.988 15.7188V15.6953C146.988 13.2695 148.078 11.8633 149.73 11.8633C151.395 11.8633 152.473 13.2695 152.473 15.6953V15.7188C152.473 18.168 151.418 19.5742 149.742 19.5742ZM158.422 22H175.66V9.4375H172.238V19.375H168.746V9.4375H165.324V19.375H161.844V9.4375H158.422V22ZM187.699 16.7266L191.625 22H195.738L190.664 15.2617L195.445 9.4375H191.555L187.699 14.3711H187.289V9.4375H183.867V22H187.289V16.7266H187.699ZM203.023 22.2578C206.598 22.2578 208.332 20.1367 208.73 18.2852L208.754 18.1562H205.613L205.59 18.2266C205.355 18.9297 204.5 19.7031 203.094 19.7031C201.348 19.7031 200.258 18.5312 200.211 16.5273H208.859V15.4727C208.859 11.6758 206.562 9.17969 202.883 9.17969C199.191 9.17969 196.836 11.7344 196.836 15.7305V15.7422C196.836 19.7617 199.168 22.2578 203.023 22.2578ZM202.941 11.7344C204.348 11.7344 205.367 12.6367 205.578 14.3711H200.258C200.48 12.6719 201.523 11.7344 202.941 11.7344ZM215.547 16.1758L215.805 12.0273H219.262V22H222.684V9.4375H212.863L212.488 15.8945C212.359 18.1445 211.949 19.1641 210.73 19.1641C210.414 19.1641 210.18 19.1289 210.039 19.0938V21.9648C210.238 22.0234 210.684 22.1172 211.316 22.1172C214.398 22.1172 215.324 19.8086 215.547 16.1758ZM227.777 25.3398V22H236.227V25.3398H239.344V19.375H237.469V9.4375H227.414L227.004 15.7539C226.887 17.4531 226.535 18.8594 225.621 19.375H224.66V25.3398H227.777ZM234.047 19.375H229.078V19.3047C229.664 18.4492 229.934 17.3242 230.016 15.9766L230.297 12.0625H234.047V19.375ZM243.137 7.82031C244.168 7.82031 244.965 7.01172 244.965 6.03906C244.965 5.06641 244.168 4.25781 243.137 4.25781C242.117 4.25781 241.309 5.06641 241.309 6.03906C241.309 7.01172 242.117 7.82031 243.137 7.82031ZM241.426 22H244.848V9.4375H241.426V22ZM258.285 25.3398H261.379V19.4219H259.492V9.4375H256.07V14.2656H251.266V9.4375H247.844V22H251.266V16.8555H256.07V22H258.285V25.3398ZM264.504 16.3164H267.457L267.738 5.08984H264.223L264.504 16.3164ZM265.98 22.1406C267.047 22.1406 267.891 21.332 267.891 20.3008C267.891 19.2695 267.047 18.4609 265.98 18.4609C264.914 18.4609 264.07 19.2695 264.07 20.3008C264.07 21.332 264.914 22.1406 265.98 22.1406Z" fill="white"/>
</svg>
